# xmcd
# 
# Track frame offsets:
#     150
#     15285
#     29827
#     41470
#     52940
#     65967
#     78257
#     114912
#     130450
#     142632
#     160735
#     180982
#     196960
#     211645
#     231852
# 
# Disc length: 3247
# 
# Revision: 9
# Processed by: cddbd v1.5.2PL0 Copyright (c) Steve Scherf et al.
# Submitted via: BonkEnc v1.0.15
# 
DISCID=ba0cad0f
DTITLE=Michel Jonasz - Tous les succès de Michel Jonasz CD1÷2
DYEAR=1989
DGENRE=Chanson
TTITLE0=Super Nana
TTITLE1=Dites-moi
TTITLE2=Changez tout
TTITLE3=L'Homme orange
TTITLE4=Les Vacances au bord de la mer
TTITLE5=Du blues, du blues, du blues
TTITLE6=J'veux pas qu'tu t'en ailles (live)
TTITLE7=La Famille
TTITLE8=En v'la du slow en v'la
TTITLE9=Guigui
TTITLE10=Golden Gate
TTITLE11=Les années 80 commencent
TTITLE12=Les Wagonnets
TTITLE13=25 Piges dont 5 au cachot
TTITLE14=Mini Cassette
EXTD=YEAR: 80
EXTT0=
EXTT1=
EXTT2=
EXTT3=
EXTT4=
EXTT5=
EXTT6=
EXTT7=
EXTT8=
EXTT9=
EXTT10=
EXTT11=
EXTT12=
EXTT13=
EXTT14=
PLAYORDER=
